HIERARCHY
ROOT Hips
{
	OFFSET 0.000000 0.000000 0.000000
	CHANNELS 6 Xposition Yposition Zposition Yrotation Xrotation Zrotation
	JOINT Chest
	{
		OFFSET 0.000000 -0.009281 11.569106
		CHANNELS 3 Yrotation Xrotation Zrotation
		JOINT Chest2
		{
			OFFSET -0.000000 0.016865 9.269641
			CHANNELS 3 Yrotation Xrotation Zrotation
			JOINT Chest3
			{
				OFFSET -0.000000 0.000001 8.374491
				CHANNELS 3 Yrotation Xrotation Zrotation
				JOINT Chest4
				{
					OFFSET -0.000000 0.000001 8.374493
					CHANNELS 3 Yrotation Xrotation Zrotation
					JOINT Neck
					{
						OFFSET -0.000000 0.000002 12.152554
						CHANNELS 3 Yrotation Xrotation Zrotation
						JOINT Head
						{
							OFFSET -0.000000 0.040101 7.802319
							CHANNELS 3 Yrotation Xrotation Zrotation
							End Site
							{
								OFFSET -0.000000 0.020947 14.853096
							}
						}
					}
					JOINT RightCollar
					{
						OFFSET 2.894404 0.000001 6.791374
						CHANNELS 3 Yrotation Xrotation Zrotation
						JOINT RightShoulder
						{
							OFFSET 13.574684 0.000001 0.000000
							CHANNELS 3 Yrotation Xrotation Zrotation
							JOINT RightElbow
							{
								OFFSET 23.923903 0.000002 0.000000
								CHANNELS 3 Yrotation Xrotation Zrotation
								JOINT RightWrist
								{
									OFFSET 19.846718 0.012767 0.000000
									CHANNELS 3 Yrotation Xrotation Zrotation
									End Site
									{
										OFFSET 14.973145 0.000001 0.000000
									}
								}
							}
						}
					}
					JOINT LeftCollar
					{
						OFFSET -2.894404 0.000001 6.791374
						CHANNELS 3 Yrotation Xrotation Zrotation
						JOINT LeftShoulder
						{
							OFFSET -13.574684 -0.000001 0.000000
							CHANNELS 3 Yrotation Xrotation Zrotation
							JOINT LeftElbow
							{
								OFFSET -23.923903 -0.000002 0.000000
								CHANNELS 3 Yrotation Xrotation Zrotation
								JOINT LeftWrist
								{
									OFFSET -19.846718 0.012763 0.000000
									CHANNELS 3 Yrotation Xrotation Zrotation
									End Site
									{
										OFFSET -14.973145 -0.000001 0.000000
									}
								}
							}
						}
					}
				}
			}
		}
	}
	JOINT RightHip
	{
		OFFSET 9.469263 0.004643 0.045487
		CHANNELS 3 Yrotation Xrotation Zrotation
		JOINT RightKnee
		{
			OFFSET 0.000000 0.002661 -40.478676
			CHANNELS 3 Yrotation Xrotation Zrotation
			JOINT RightAnkle
			{
				OFFSET 0.000000 0.049106 -35.224068
				CHANNELS 3 Yrotation Xrotation Zrotation
				JOINT RightToe
				{
					OFFSET -0.000001 12.539529 -6.151390
					CHANNELS 3 Yrotation Xrotation Zrotation
					End Site
					{
						OFFSET -0.000001 5.044994 -1.291870
					}
				}
			}
		}
	}
	JOINT LeftHip
	{
		OFFSET -9.469263 0.004641 0.045487
		CHANNELS 3 Yrotation Xrotation Zrotation
		JOINT LeftKnee
		{
			OFFSET 0.000000 0.002661 -40.478676
			CHANNELS 3 Yrotation Xrotation Zrotation
			JOINT LeftAnkle
			{
				OFFSET 0.000000 0.049106 -35.224068
				CHANNELS 3 Yrotation Xrotation Zrotation
				JOINT LeftToe
				{
					OFFSET -0.000001 12.539529 -6.151390
					CHANNELS 3 Yrotation Xrotation Zrotation
					End Site
					{
						OFFSET -0.000001 5.044994 -1.291870
					}
				}
			}
		}
	}
}
MOTION
Frames: 7
Frame Time: 0.016667
74.910545 82.189148 80.670494 -3.848933 9.676625 -2.397522 2.579393 -3.457224 1.318863 1.118740 -1.578594 0.597677 1.118740 -1.578594 0.597677 0.840546 -1.182857 0.451121 -0.239889 -18.638229 -3.775780 -1.665558 1.473774 -7.006549 10.613992 -1.754804 -1.473274 63.044518 -2.971793 35.108593 -2.048142 -13.894379 25.997928 -22.997156 3.856508 21.060101 -5.289872 -1.771637 4.556395 -80.714224 18.101253 20.183448 16.433905 16.234958 15.769203 11.940308 -4.809646 -6.274927 -0.733137 -17.413953 -6.603644 2.652235 -27.539729 4.118592 10.565537 5.153852 4.107816 -11.108173 28.345230 -1.770586 -7.461481 9.751523 -3.543934 -2.114364 -5.434960 7.464791 4.382711 -12.595145 3.454182 1.173987 1.128292 -0.219703 
74.779724 84.103340 80.608345 -2.241708 9.924097 -1.701335 2.215714 -3.259917 1.347947 1.073875 -1.580099 0.623382 1.073876 -1.580098 0.623382 0.806968 -1.183984 0.470286 -1.060287 -18.746250 -3.201824 -2.978500 1.252407 -6.214772 10.634208 -2.011048 -1.174121 64.645521 -2.275415 34.749311 -1.863485 -13.306066 29.761405 -23.539154 4.233542 22.698708 -4.977579 -1.487448 5.380196 -79.429308 18.915348 20.727467 16.290288 16.189553 15.605341 10.932825 -4.774365 -4.952030 -3.379678 -15.821343 -6.691352 3.446811 -32.642157 2.395665 12.793091 0.521800 5.171109 -14.230090 35.778744 -3.463126 -8.420974 6.896839 -1.062843 -3.473497 -3.307228 5.724992 5.816913 -14.096380 2.437590 0.718056 2.457279 0.275068 
74.627472 85.932281 80.447029 -0.129093 10.370753 -1.173362 1.391027 -3.331401 1.646153 0.962244 -1.552410 0.643396 0.962243 -1.552411 0.643396 0.723274 -1.163300 0.484963 -1.773348 -18.875793 -2.630141 -4.094708 1.000316 -5.390118 10.714900 -1.661884 -0.957494 66.722363 -1.636593 33.565343 -1.617375 -13.043722 33.190498 -24.397198 4.896495 24.623734 -4.798072 -0.863891 6.072663 -77.770460 19.882898 21.437297 16.103066 16.277014 15.261650 10.303404 -4.288625 -3.935783 -6.822394 -13.839044 -6.922535 4.127176 -38.389153 0.931866 15.029189 -5.595893 5.598075 -17.839045 44.604267 -5.832732 -10.405348 4.453617 1.983586 -3.965880 -2.871079 3.277871 6.822548 -14.149085 2.237641 0.236681 3.217435 0.439651 
74.494164 87.577888 80.226585 2.121334 10.450207 -0.707379 0.417163 -3.221549 2.086589 0.811455 -1.486852 0.672531 0.811455 -1.486850 0.672531 0.610194 -1.114248 0.506346 -2.363527 -18.981176 -2.092336 -4.998465 0.801077 -4.588300 10.613886 -1.386334 -1.081622 69.372114 -0.912638 32.251440 -1.282285 -13.198373 36.216767 -25.390938 6.189737 27.070155 -4.728347 -0.479280 6.652484 -76.251583 20.644441 21.620440 15.868263 16.665696 14.858679 9.859747 -3.439808 -3.410331 -10.241620 -10.963423 -7.431957 3.880543 -44.616708 -0.363984 17.383482 -11.379551 7.218684 -23.073422 52.408858 -9.778445 -13.297988 3.731145 2.559296 -3.743785 -3.918021 3.984340 8.035920 -13.380718 2.204199 -0.326958 3.639150 0.116154 
74.060471 88.816200 79.915855 3.335247 9.917532 0.589400 0.457308 -2.715508 1.493273 0.642420 -1.380304 0.690346 0.642420 -1.380303 0.690346 0.483352 -1.034505 0.519187 -2.888533 -19.022010 -1.544883 -5.783420 0.728249 -3.750926 10.395278 -1.683921 -1.217896 71.797774 -0.163763 31.283988 -0.465016 -13.059352 38.583124 -26.369154 8.195465 30.097727 -5.005543 -0.616379 6.837010 -74.923439 21.404257 21.000298 15.586784 17.427492 14.531808 9.498814 -2.275217 -3.432384 -12.349947 -7.325994 -8.772034 2.352527 -50.534678 -0.338766 19.942172 -17.182743 10.338407 -31.855558 57.228239 -17.300113 -15.071835 3.574010 0.702570 -3.618311 -5.105633 6.686686 9.369186 -10.688945 2.052793 -1.019784 2.320557 -0.898747 
73.933311 90.422874 79.661331 4.581540 9.838292 1.193107 0.246609 -2.864259 1.564151 0.464008 -1.281870 0.713822 0.464007 -1.281870 0.713823 0.349489 -0.960864 0.536318 -3.352653 -18.960834 -0.994548 -6.460644 0.850265 -2.894486 10.286517 -2.244108 -1.097355 73.755005 0.408676 30.505913 0.817051 -12.257882 40.184817 -27.368551 10.686250 33.394622 -5.540490 -0.714889 6.759963 -73.662723 21.898912 19.940855 15.271273 18.355718 14.285677 9.308773 -0.833354 -4.004089 -13.870835 -3.660601 -8.991922 -0.054761 -56.590019 1.876151 21.372417 -20.347866 11.315635 -36.888643 58.084550 -21.695152 -16.604957 2.967417 -0.141059 -4.002014 -5.935811 7.887158 9.910491 -8.690323 1.959062 -0.896996 1.485355 -0.703371 
73.409126 91.743317 79.490471 5.965064 9.471027 1.873639 -0.345876 -2.825966 1.547136 0.296875 -1.224679 0.733047 0.296873 -1.224679 0.733047 0.224117 -0.918154 0.550358 -3.778831 -18.809139 -0.422692 -7.064534 1.145258 -1.991922 10.270357 -2.645794 -0.914737 75.385781 0.470553 29.619474 2.300461 -10.944982 41.050625 -28.524250 13.328639 36.556754 -6.165841 -0.507984 6.575848 -72.516064 22.047511 18.682867 14.912304 19.091685 14.106416 9.523242 0.844059 -5.224277 -15.051843 0.418837 -8.593459 -3.410401 -62.006773 5.982505 22.830382 -20.667748 10.864718 -36.415324 54.231825 -21.323050 -18.025247 2.148051 -1.044433 -4.546872 -6.078956 7.089458 10.176973 -7.227907 3.669763 -0.824327 0.709187 -0.699800 
